<svg width="16" height="17" viewBox="0 0 16 17" fill="none" xmlns="http://www.w3.org/2000/svg">
<path d="M3.33333 14.5H12.6667C13.0203 14.5 13.3594 14.3595 13.6095 14.1095C13.8595 13.8594 14 13.5203 14 13.1667V3.83333C14 3.47971 13.8595 3.14057 13.6095 2.89052C13.3594 2.64048 13.0203 2.5 12.6667 2.5H3.33333C2.97971 2.5 2.64057 2.64048 2.39052 2.89052C2.14048 3.14057 2 3.47971 2 3.83333V13.1667C2 13.5203 2.14048 13.8594 2.39052 14.1095C2.64057 14.3595 2.97971 14.5 3.33333 14.5ZM5.33333 9.83333L6.90867 11.4087L9.33333 7.83333L12.6667 12.5H3.33333L5.33333 9.83333Z" fill="#DA191C"/>
</svg>
