<svg width="40" height="41" viewBox="0 0 40 41" fill="none" xmlns="http://www.w3.org/2000/svg">
<path d="M18 37C19.1935 37 20.3381 36.5259 21.182 35.682C22.0259 34.8381 22.5 33.6935 22.5 32.5H13.5C13.5 33.6935 13.9741 34.8381 14.818 35.682C15.6619 36.5259 16.8065 37 18 37ZM20.2388 3.47277C20.2702 3.15991 20.2356 2.84395 20.1374 2.54526C20.0392 2.24656 19.8795 1.97177 19.6686 1.7386C19.4576 1.50542 19.2001 1.31905 18.9128 1.1915C18.6254 1.06395 18.3144 0.998047 18 0.998047C17.6856 0.998047 17.3746 1.06395 17.0872 1.1915C16.7999 1.31905 16.5424 1.50542 16.3315 1.7386C16.1205 1.97177 15.9608 2.24656 15.8626 2.54526C15.7644 2.84395 15.7298 3.15991 15.7613 3.47277C13.2181 3.99004 10.9319 5.37033 9.28972 7.37989C7.64754 9.38946 6.75033 11.9048 6.75 14.5C6.75 16.9705 5.625 28 2.25 30.25H33.75C30.375 28 29.25 16.9705 29.25 14.5C29.25 9.05502 25.38 4.51002 20.2388 3.47277Z" fill="#1BBDD4"/>
<g filter="url(#filter0_d_1181_3609)">
<circle cx="29.5" cy="30.5" r="6.5" fill="#F06543"/>
</g>
<defs>
<filter id="filter0_d_1181_3609" x="19" y="20" width="21" height="21" filterUnits="userSpaceOnUse" color-interpolation-filters="sRGB">
<feFlood flood-opacity="0" result="BackgroundImageFix"/>
<feColorMatrix in="SourceAlpha" type="matrix" values="0 0 0 0 0 0 0 0 0 0 0 0 0 0 0 0 0 0 127 0" result="hardAlpha"/>
<feOffset/>
<feGaussianBlur stdDeviation="2"/>
<feComposite in2="hardAlpha" operator="out"/>
<feColorMatrix type="matrix" values="0 0 0 0 0 0 0 0 0 0 0 0 0 0 0 0 0 0 0.25 0"/>
<feBlend mode="normal" in2="BackgroundImageFix" result="effect1_dropShadow_1181_3609"/>
<feBlend mode="normal" in="SourceGraphic" in2="effect1_dropShadow_1181_3609" result="shape"/>
</filter>
</defs>
</svg>
