<svg width="20" height="20" viewBox="0 0 20 20" fill="none" xmlns="http://www.w3.org/2000/svg">
<path d="M16.1597 4.77879C17.9995 6.61863 17.9995 9.61473 16.1597 11.4526L11.0659 16.5503C11.0327 16.5835 10.9878 16.6011 10.9409 16.6011C10.894 16.6011 10.8491 16.5835 10.8159 16.5503L10.0952 15.8296C10.0624 15.7966 10.044 15.752 10.044 15.7055C10.044 15.6591 10.0624 15.6145 10.0952 15.5815L15.189 10.4839C15.8218 9.85106 16.1694 9.00926 16.1694 8.11473C16.1694 7.2202 15.8218 6.3784 15.189 5.74754C14.5562 5.11473 13.7144 4.76707 12.8218 4.76707C11.9272 4.76707 11.0874 5.11473 10.4546 5.74754L5.26123 10.9429L4.41943 11.7847C3.63232 12.5718 3.63232 13.8511 4.41943 14.6382C4.80029 15.019 5.30615 15.228 5.84521 15.228C6.38428 15.228 6.89014 15.019 7.271 14.6382L12.4233 9.48387C12.5522 9.35301 12.6245 9.18113 12.6245 8.99754L12.6245 8.99559C12.6245 8.81199 12.5522 8.64207 12.4233 8.51317C12.2925 8.38231 12.1206 8.31199 11.937 8.31199C11.7554 8.31199 11.5835 8.38426 11.4546 8.51317L7.24561 12.7261C7.2124 12.7593 7.16748 12.7768 7.12061 12.7768C7.07373 12.7768 7.02881 12.7593 6.99561 12.7261L6.2749 12.0054C6.2421 11.9724 6.22369 11.9278 6.22369 11.8813C6.22369 11.8348 6.2421 11.7902 6.2749 11.7573L10.4858 7.54637C10.8745 7.1577 11.3901 6.94481 11.939 6.94481C12.4878 6.94481 13.0054 7.15965 13.3921 7.54637C14.1948 8.3491 14.1929 9.65379 13.3921 10.4565L12.8901 10.9565L8.23975 15.6089C7.92584 15.9246 7.55237 16.1749 7.14099 16.3452C6.7296 16.5156 6.2885 16.6025 5.84326 16.6011C4.93897 16.6011 4.08936 16.2475 3.45068 15.6089C2.79053 14.9468 2.46045 14.0796 2.46045 13.2124C2.46045 12.3452 2.79053 11.478 3.45068 10.8179L9.48584 4.77879C10.3765 3.89012 11.562 3.39793 12.8218 3.39793C14.0835 3.39598 15.269 3.88817 16.1597 4.77879Z" fill="#999999"/>
</svg>
